<?xml version="1.0" standalone="no"?>
<!DOCTYPE svg PUBLIC "-//W3C//DTD SVG 20010904//EN"
 "http://www.w3.org/TR/2001/REC-SVG-20010904/DTD/svg10.dtd">
<svg version="1.0" xmlns="http://www.w3.org/2000/svg"
 width="200.000000pt" height="200.000000pt" viewBox="0 0 200.000000 200.000000"
 preserveAspectRatio="xMidYMid meet">
<metadata>
Created by potrace 1.14, written by Peter Selinger 2001-2017
</metadata>
<g transform="translate(0.000000,200.000000) scale(0.100000,-0.100000)"
fill="#000000" stroke="none">
<path d="M1589 1578 c0 -2 -2 -169 -3 -373 -2 -203 -6 -379 -11 -390 -22 -55
-82 -85 -141 -71 -42 11 -84 61 -84 102 0 93 85 150 163 109 l27 -14 -2 172
-3 172 -91 0 c-82 -1 -97 -4 -157 -33 -149 -74 -246 -218 -252 -376 -8 -201
117 -372 313 -430 36 -10 82 -14 141 -12 77 3 97 8 162 39 81 40 108 62 155
122 81 106 89 163 89 617 l0 363 -152 3 c-84 1 -153 1 -154 0z"/>
<path d="M414 1275 c-138 -42 -259 -163 -293 -290 -64 -246 70 -483 306 -540
126 -31 273 -4 350 62 l32 28 -87 102 -86 102 -22 -20 c-12 -11 -40 -23 -61
-26 -122 -16 -183 213 -85 319 47 51 130 49 163 -5 10 -18 19 -35 19 -39 0 -5
-36 -8 -80 -8 l-79 0 -6 -33 c-4 -19 -5 -51 -3 -73 l4 -39 237 -3 237 -2 0 57
c-1 193 -118 353 -296 406 -61 18 -193 19 -250 2z"/>
</g>
</svg>
